<?xml version="1.0" encoding="UTF-8" standalone="no"?>
<svg
   xmlns:dc="http://purl.org/dc/elements/1.1/"
   xmlns:cc="http://creativecommons.org/ns#"
   xmlns:rdf="http://www.w3.org/1999/02/22-rdf-syntax-ns#"
   xmlns:svg="http://www.w3.org/2000/svg"
   xmlns="http://www.w3.org/2000/svg"
   xmlns:sodipodi="http://sodipodi.sourceforge.net/DTD/sodipodi-0.dtd"
   xmlns:inkscape="http://www.inkscape.org/namespaces/inkscape"
   sodipodi:docname="test25.svg"
   inkscape:version="1.0 (4035a4f, 2020-05-01)"
   id="svg8"
   version="1.1"
   viewBox="0 0 132.29166 132.29167"
   height="500"
   width="500">
  <defs
     id="defs2">
    <inkscape:path-effect
       hide_knots="false"
       only_selected="false"
       apply_with_radius="true"
       apply_no_radius="true"
       use_knot_distance="true"
       flexible="false"
       chamfer_steps="1"
       radius="17"
       mode="F"
       method="auto"
       unit="px"
       satellites_param="F,0,0,1,0,4.4979167,0,1 @ F,0,0,1,0,4.4979167,0,1 @ F,0,0,1,0,4.4979167,0,1 @ F,0,0,1,0,4.4979167,0,1"
       lpeversion="1"
       is_visible="true"
       id="path-effect934"
       effect="fillet_chamfer" />
    <inkscape:path-effect
       hide_knots="false"
       only_selected="false"
       apply_with_radius="true"
       apply_no_radius="true"
       use_knot_distance="true"
       flexible="false"
       chamfer_steps="1"
       radius="17"
       mode="F"
       method="auto"
       unit="px"
       satellites_param="F,0,0,1,0,4.4979167,0,1 @ F,0,0,1,0,4.4979167,0,1 @ F,0,0,1,0,4.4979167,0,1 @ F,0,0,1,0,4.4979167,0,1"
       lpeversion="1"
       is_visible="true"
       id="path-effect932"
       effect="fillet_chamfer" />
    <inkscape:path-effect
       hide_knots="false"
       only_selected="false"
       apply_with_radius="true"
       apply_no_radius="true"
       use_knot_distance="true"
       flexible="false"
       chamfer_steps="1"
       radius="17"
       mode="F"
       method="auto"
       unit="px"
       satellites_param="F,0,0,1,0,4.4979167,0,1 @ F,0,0,1,0,4.4979167,0,1 @ F,0,0,1,0,4.4979167,0,1 @ F,0,0,1,0,4.4979167,0,1 @ F,0,0,1,0,4.4979167,0,1 @ F,0,0,1,0,4.4979167,0,1 @ F,0,0,1,0,4.4979167,0,1 @ F,0,0,1,0,4.4979167,0,1"
       lpeversion="1"
       is_visible="true"
       id="path-effect930"
       effect="fillet_chamfer" />
  </defs>
  <sodipodi:namedview
     inkscape:window-maximized="1"
     inkscape:window-y="25"
     inkscape:window-x="0"
     inkscape:window-height="1027"
     inkscape:window-width="1920"
     units="px"
     showgrid="false"
     inkscape:document-rotation="0"
     inkscape:current-layer="layer1"
     inkscape:document-units="mm"
     inkscape:cy="249.1336"
     inkscape:cx="290.72413"
     inkscape:zoom="1.5448129"
     inkscape:pageshadow="2"
     inkscape:pageopacity="0.0"
     borderopacity="1.0"
     bordercolor="#666666"
     pagecolor="#ffffff"
     id="base">
    <inkscape:grid
       id="grid833"
       type="xygrid" />
  </sodipodi:namedview>
  <metadata
     id="metadata5">
    <rdf:RDF>
      <cc:Work
         rdf:about="">
        <dc:format>image/svg+xml</dc:format>
        <dc:type
           rdf:resource="http://purl.org/dc/dcmitype/StillImage" />
        <dc:title></dc:title>
      </cc:Work>
    </rdf:RDF>
  </metadata>
  <g
     id="layer1"
     inkscape:groupmode="layer"
     inkscape:label="Layer 1">
    <path
       id="path961"
       d="m 68.442786,14.084028 c -1.278859,-1.278859 -3.315045,-1.278858 -4.593905,2e-6 L 51.502492,26.430419 c -1.278859,1.278859 -1.278859,3.315044 0,4.593903 L 63.848881,43.37071 c 2.234238,2.234238 2.234599,5.894994 3.67e-4,8.129225 L 32.791796,82.557387 c -1.278859,1.278859 -1.278852,3.314316 7e-6,4.593175 l 12.348213,12.348213 c 1.278859,1.278855 3.314316,1.278865 4.593175,7e-6 L 80.790643,68.44133 c 2.234231,-2.234232 5.894619,-2.234239 8.12885,-7e-6 l 12.348217,12.348221 c 1.27886,1.278859 3.31468,1.278491 4.59354,-3.68e-4 l 12.34639,-12.346389 c 1.27886,-1.27886 1.27923,-3.314678 3.7e-4,-4.593537 z"
       style="fill:#5ab6e2;fill-opacity:1;stroke:none;stroke-width:0.26458300000000001px;stroke-linecap:butt;stroke-linejoin:miter;stroke-opacity:1" />
    <path
       id="path1023"
       d="M 66.86313,85.904517 51.501031,101.26662 c -0.850694,0.85069 -1.908565,1.37494 -3.015344,1.57783 l 15.363561,15.36356 c 1.278859,1.27886 3.31468,1.27849 4.593537,-3.7e-4 l 12.346391,-12.34639 c 1.27886,-1.27886 1.279225,-3.31468 3.65e-4,-4.59354 L 68.441324,88.919496 C 67.590628,88.0688 67.066011,87.01128 66.86313,85.904517 Z"
       style="fill:#ffe13d;fill-opacity:1;stroke:none;stroke-width:0.26458300000000001px;stroke-linecap:butt;stroke-linejoin:miter;stroke-opacity:1" />
    <path
       id="path1021"
       d="M 46.386054,65.427442 C 45.279227,65.224495 44.221407,64.699579 43.370711,63.848883 L 31.02432,51.502492 c -1.27886,-1.27886 -3.315043,-1.27886 -4.593903,0 L 14.084026,63.848883 c -1.278857,1.278857 -1.278859,3.315043 0,4.593902 L 29.445761,83.80452 c 0.202881,-1.106781 0.7275,-2.164285 1.578194,-3.014979 z"
       style="fill:#ffe13d;fill-opacity:1;stroke:none;stroke-width:0.26458300000000001px;stroke-linecap:butt;stroke-linejoin:miter;stroke-opacity:1" />
  </g>
</svg>
